<svg width="1451" height="85" viewBox="0 0 1451 85" fill="none" xmlns="http://www.w3.org/2000/svg">
<path d="M1446.72 84.7457C1467.36 71.6584 1408.51 65.1757 1373.88 59.4454C1365.2 58.0086 1369.22 58.4816 1364.57 55.4045C1361.76 53.5449 1357.58 52.8614 1355.84 50.5504C1352.8 46.5204 1353.85 43.5416 1344.51 41.5246C1330.12 38.418 1347.02 33.8117 1341.41 30.295C1333.03 25.0455 1332.13 19.0448 1308.46 19.4755C1281.05 19.9741 1294.69 13.6173 1281.16 20.4678C1275.78 2.41231 1282.99 10.317 1199.52 18.0398C1190.97 18.8314 1188.12 18.6829 1184.96 24.1005C1176.82 37.9854 1181.07 27.7008 1184.96 35.0951C1186.57 38.1613 1167.59 45.7778 1157.93 46.2115C1156.76 46.2637 1155.31 46.8045 1154.78 47.2559C1146.98 53.951 1156.18 53.6245 1090.57 49.3172C1086.76 46.4741 1079.66 45.0856 1071.6 44.4523C1066.38 37.2251 1084.75 37.7395 1063.2 30.8261C1059.49 31.2273 1056.12 29.9449 1051.71 30.3039C1036.71 31.5243 1047.3 25.4468 1030.29 24.1005C1020.82 23.3511 985.728 21.6715 980.039 24.961C980.889 27.4579 982.941 30.2419 978.302 30.4111C972.64 30.6156 969.227 32.3218 964.764 32.9748C963.571 35.0124 962.502 36.8328 961.401 38.716C957.677 38.7209 954.229 38.1918 951.125 39.2972C934.992 45.0364 932.231 36.6213 925.213 48.3082C923.274 51.5338 910.012 51.3991 901.382 51.1906C884.588 50.7825 888.969 52.473 862.158 52.1583C859.716 52.1298 850.453 49.3585 830.031 49.5994C790.527 50.0695 795.763 52.2143 796.846 56.7282C792.627 56.8138 784.799 56.7646 781.92 57.5926C775.805 59.3539 739.728 60.0698 737.765 59.1592C735.667 58.1866 732.637 58.1571 729.997 57.7313C718.772 55.9208 721.933 60.1603 711.886 59.9784C708.734 58.4049 702.818 55.0259 692.546 57.5139C686.909 58.8799 674.913 58.0066 669.69 56.0673C654.011 50.2436 641.83 50.1009 637.709 44.9744C635.08 41.7055 625.254 41.9091 615.433 33.5914C607.833 27.154 599.553 41.1126 587.459 25.8087C585.174 22.9174 584.59 20.3517 577.777 20.6251C562.961 21.223 573.279 57.3644 524.993 32.2942C516.392 27.8295 525.813 25.8637 516.17 24.5253C512.287 23.9863 508.928 24.8389 506.482 22.3224C502.475 18.2009 503.993 18.5382 496.95 18.9965C492.942 16.9579 489.492 15.1631 485.928 13.4018C478.81 9.88418 378.592 9.84189 355.391 8.06879C329.199 6.06656 335.561 2.96389 324.448 4.39377C300.435 7.48366 306.932 -0.896007 288.84 0.0795396C183.188 5.77646 218.964 6.43238 174.858 26.499C155.892 35.1294 144.696 -1.33851 140.074 27.091C139.049 33.3996 142.168 34.74 135.244 35.1393C126.035 35.6723 126.095 39.6434 118.992 36.9665C109.662 33.4508 103.439 25.1232 92.4707 24.6266C50.4052 22.7178 70.5371 52.4179 43.2211 56.8708C29.0826 59.1759 13.948 58.2475 7.77447 65.0242C4.14199 69.0149 5.62469 73.7147 3.46467 77.8352C2.16411 80.3115 1.00856 82.591 0 84.7457H1446.72Z" fill="#F5F2E9"/>
</svg>
