<svg width="22" height="22" viewBox="0 0 22 22" fill="none" xmlns="http://www.w3.org/2000/svg">
<path d="M10.75 0C16.6871 0 21.5 4.81294 21.5 10.75C21.5 16.6871 16.6871 21.5 10.75 21.5C4.81294 21.5 0 16.6871 0 10.75C0 4.81294 4.81294 0 10.75 0ZM10.75 5.75C10.1977 5.75 9.75 6.19772 9.75 6.75V9.75H6.75C6.19772 9.75 5.75 10.1977 5.75 10.75C5.75 11.3023 6.19772 11.75 6.75 11.75H9.75V14.75C9.75 15.3023 10.1977 15.75 10.75 15.75C11.3023 15.75 11.75 15.3023 11.75 14.75V11.75H14.75C15.3023 11.75 15.75 11.3023 15.75 10.75C15.75 10.1977 15.3023 9.75 14.75 9.75H11.75V6.75C11.75 6.19772 11.3023 5.75 10.75 5.75Z" fill="#0C83FF" style="fill:#0C83FF;fill:color(display-p3 0.0471 0.5137 1.0000);fill-opacity:1;"/>
</svg>
