<svg preserveAspectRatio="none" width="100%" height="100%" overflow="visible" style="display: block;" viewBox="0 0 18 18" fill="none" xmlns="http://www.w3.org/2000/svg">
<g id="Frame">
<path id="Vector" fill-rule="evenodd" clip-rule="evenodd" d="M6.075 0.937408C6.47886 0.937408 6.80625 1.26556 6.80625 1.67036V2.40954C7.23968 2.40331 7.7088 2.40331 8.21528 2.40331H9.78472C10.2912 2.40331 10.7603 2.40331 11.1938 2.40954V1.67036C11.1938 1.26556 11.5211 0.937408 11.925 0.937408C12.3289 0.937408 12.6562 1.26556 12.6562 1.67036V2.47451C12.7885 2.48658 12.9158 2.50069 13.0382 2.51719C13.9158 2.63546 14.6548 2.88847 15.2416 3.47671C15.8284 4.06494 16.0809 4.80559 16.1989 5.68525C16.3125 6.53251 16.3125 7.60978 16.3125 8.94628V10.5194C16.3125 11.8559 16.3125 12.9332 16.1989 13.7805C16.0809 14.6602 15.8284 15.4008 15.2416 15.989C14.6548 16.5772 13.9158 16.8303 13.0382 16.9486C12.1929 17.0624 11.1181 17.0624 9.78472 17.0624H8.21528C6.88186 17.0624 5.80709 17.0624 4.9618 16.9486C4.08419 16.8303 3.34526 16.5772 2.7584 15.989C2.17153 15.4008 1.9191 14.6602 1.80111 13.7805C1.68746 12.9332 1.68749 11.856 1.6875 10.5195V8.94628C1.68749 7.60978 1.68746 6.53250 1.80111 5.68525C1.9191 4.80559 2.17153 4.06494 2.7584 3.47671C3.34526 2.88847 4.08419 2.63546 4.9618 2.51719C5.08427 2.50069 5.21156 2.48658 5.34375 2.47451V1.67036C5.34375 1.26556 5.67114 0.937408 6.075 0.937408ZM3.1604 7.31241C3.15034 7.79676 3.15001 8.35326 3.15001 8.99991V10.4658C3.15001 11.8686 3.15156 12.847 3.25058 13.5852C3.34676 14.3023 3.5227 14.682 3.79255 14.9524C4.06239 15.223 4.44125 15.3993 5.15668 15.4957C5.89314 15.595 6.86923 15.5965 8.26875 15.5965H9.73125C11.1308 15.5965 12.1069 15.595 12.8434 15.4957C13.5588 15.3993 13.9376 15.223 14.2075 14.9524C14.4773 14.682 14.6533 14.3023 14.7494 13.5852C14.8484 12.847 14.85 11.8686 14.85 10.4658V8.99991C14.85 8.35326 14.8497 7.79676 14.8396 7.31241H3.1604Z" fill="var(--fill-0, #343434)" style="fill:#343434;fill:color(display-p3 0.2039 0.2039 0.2039);fill-opacity:1;"/>
<path id="Vector_2" fill-rule="evenodd" clip-rule="evenodd" d="M7.49995 9.95517C7.49995 9.54102 7.83573 9.20517 8.24995 9.20517H12C12.4142 9.20517 12.75 9.54102 12.75 9.95517C12.75 10.3694 12.4142 10.7052 12 10.7052H8.24995C7.83573 10.7052 7.49995 10.3694 7.49995 9.95517ZM5.24995 9.95517C5.24995 9.54102 5.58574 9.20517 5.99995 9.20517H6.00669C6.42091 9.20517 6.75669 9.54102 6.75669 9.95517C6.75669 10.3694 6.42091 10.7052 6.00669 10.7052H5.99995C5.58574 10.7052 5.24995 10.3694 5.24995 9.95517ZM5.24995 12.9552C5.24995 12.541 5.58574 12.2052 5.99995 12.2052H9.74995C10.1642 12.2052 10.5 12.541 10.5 12.9552C10.5 13.3694 10.1642 13.7052 9.74995 13.7052H5.99995C5.58574 13.7052 5.24995 13.3694 5.24995 12.9552ZM11.2432 12.9552C11.2432 12.541 11.579 12.2052 11.9932 12.2052H12C12.4142 12.2052 12.75 12.541 12.75 12.9552C12.75 13.3694 12.4142 13.7052 12 13.7052H11.9932C11.579 13.7052 11.2432 13.3694 11.2432 12.9552Z" fill="var(--fill-0, #343434)" style="fill:#343434;fill:color(display-p3 0.2039 0.2039 0.2039);fill-opacity:1;"/>
</g>
</svg>