<svg width="14" height="14" viewBox="0 0 14 14" fill="none" xmlns="http://www.w3.org/2000/svg">
<path d="M8.75004 8.1665H7.87504C7.55287 8.1665 7.29171 8.42766 7.29171 8.74984V9.0415C7.29171 9.36368 7.55287 9.62484 7.87504 9.62484H8.16671C8.48888 9.62484 8.75004 9.886 8.75004 10.2082V10.4998C8.75004 10.822 8.48888 11.0832 8.16671 11.0832H7.29171M10.2084 8.1665L11.2292 11.0832L12.25 8.1665M5.83337 10.4998C5.83337 10.822 5.5722 11.0832 5.25004 11.0832H4.66671C4.34454 11.0832 4.08337 10.822 4.08337 10.4998V8.74984C4.08337 8.42766 4.34454 8.1665 4.66671 8.1665H5.25004C5.5722 8.1665 5.83337 8.42766 5.83337 8.74984" stroke="white" style="stroke:white;stroke-opacity:1;" stroke-width="0.875" stroke-linecap="round" stroke-linejoin="round"/>
<path d="M11.0833 12.8332H2.91667C2.27233 12.8332 1.75 12.3109 1.75 11.6665V2.33317C1.75 1.68884 2.27233 1.1665 2.91667 1.1665H7L11.0833 5.24984V6.4165M10.7917 5.24984H8.1655C7.52121 5.24984 6.99883 4.7275 6.99883 4.08317V1.45817" stroke="white" style="stroke:white;stroke-opacity:1;" stroke-width="0.875" stroke-linecap="round" stroke-linejoin="round"/>
</svg>
