<svg width="18" height="18" viewBox="0 0 18 18" fill="none" xmlns="http://www.w3.org/2000/svg">
<path d="M2.25 3V4.89872C2.25 5.1213 2.34886 5.33239 2.51986 5.47489L6.51806 8.80673C6.66689 8.93078 6.76195 9.10755 6.78334 9.30007L7.38116 14.6805C7.43881 15.1993 7.99552 15.502 8.46225 15.2683L10.1412 14.428C10.3608 14.318 10.5127 14.1076 10.5478 13.8644L11.2089 9.28477C11.2354 9.10147 11.3287 8.93438 11.471 8.8158L15.4801 5.47489C15.6511 5.33239 15.75 5.1213 15.75 4.89872V3C15.75 2.58579 15.4142 2.25 15 2.25H3C2.58579 2.25 2.25 2.58579 2.25 3Z" stroke="#343434" style="stroke:#343434;stroke:color(display-p3 0.2039 0.2039 0.2039);stroke-opacity:1;" stroke-width="1.125" stroke-linejoin="round"/>
</svg>
