<svg width="14" height="14" viewBox="0 0 14 14" fill="none" xmlns="http://www.w3.org/2000/svg">
<path d="M11.0833 12.8332H2.91667C2.27233 12.8332 1.75 12.3109 1.75 11.6665V2.33317C1.75 1.68884 2.27233 1.1665 2.91667 1.1665H7L11.0833 5.24984V6.4165M10.7917 5.24984H8.1655C7.52121 5.24984 6.99883 4.7275 6.99883 4.08317V1.45817" stroke="#343434" style="stroke:#343434;stroke:color(display-p3 0.2039 0.2039 0.2039);stroke-opacity:1;" stroke-width="0.875" stroke-linecap="round" stroke-linejoin="round"/>
<path d="M12.25 8.604C12.4916 8.604 12.6875 8.40812 12.6875 8.1665C12.6875 7.92489 12.4916 7.729 12.25 7.729V8.604ZM10.5 8.1665V7.729C10.2584 7.729 10.0625 7.92489 10.0625 8.1665H10.5ZM10.0625 11.0832C10.0625 11.3248 10.2584 11.5207 10.5 11.5207C10.7416 11.5207 10.9375 11.3248 10.9375 11.0832H10.0625ZM11.9583 10.0623C12.1999 10.0623 12.3958 9.86645 12.3958 9.62484C12.3958 9.38322 12.1999 9.18734 11.9583 9.18734V10.0623ZM4.08331 8.1665V7.729C3.84169 7.729 3.64581 7.92489 3.64581 8.1665H4.08331ZM3.64581 11.0832C3.64581 11.3248 3.84169 11.5207 4.08331 11.5207C4.32494 11.5207 4.52081 11.3248 4.52081 11.0832H3.64581ZM7.29165 8.1665V7.729C7.05003 7.729 6.85415 7.92489 6.85415 8.1665H7.29165ZM7.29165 11.0832H6.85415C6.85415 11.3248 7.05003 11.5207 7.29165 11.5207V11.0832ZM12.25 7.729H10.5V8.604H12.25V7.729ZM10.0625 8.1665V9.62484H10.9375V8.1665H10.0625ZM10.0625 9.62484V11.0832H10.9375V9.62484H10.0625ZM10.5 10.0623H11.9583V9.18734H10.5V10.0623ZM4.08331 8.604H4.95831V7.729H4.08331V8.604ZM4.52081 11.0832V9.9165H3.64581V11.0832H4.52081ZM4.52081 9.9165V8.1665H3.64581V9.9165H4.52081ZM4.95831 9.479H4.08331V10.354H4.95831V9.479ZM5.39581 9.0415C5.39581 9.28312 5.19994 9.479 4.95831 9.479V10.354C5.68319 10.354 6.27081 9.76635 6.27081 9.0415H5.39581ZM4.95831 8.604C5.19994 8.604 5.39581 8.79989 5.39581 9.0415H6.27081C6.27081 8.31665 5.68319 7.729 4.95831 7.729V8.604ZM7.29165 8.604H8.04164V7.729H7.29165V8.604ZM8.60415 9.13875V10.1109H9.47915V9.13875H8.60415ZM8.04164 10.6457H7.29165V11.5207H8.04164V10.6457ZM7.72915 11.0832V8.1665H6.85415V11.0832H7.72915ZM8.60415 10.1109C8.60415 10.3947 8.36399 10.6457 8.04164 10.6457V11.5207C8.82383 11.5207 9.47915 10.9011 9.47915 10.1109H8.60415ZM8.04164 8.604C8.36399 8.604 8.60415 8.85495 8.60415 9.13875H9.47915C9.47915 8.34862 8.82383 7.729 8.04164 7.729V8.604Z" fill="#343434" style="fill:#343434;fill:color(display-p3 0.2039 0.2039 0.2039);fill-opacity:1;"/>
</svg>
