<svg width="20" height="20" viewBox="0 0 20 20" fill="none" xmlns="http://www.w3.org/2000/svg">
<path fill-rule="evenodd" clip-rule="evenodd" d="M10 3.125C6.20304 3.125 3.125 6.20304 3.125 10C3.125 13.7969 6.20304 16.875 10 16.875C13.7969 16.875 16.875 13.7969 16.875 10C16.875 6.20304 13.7969 3.125 10 3.125ZM1.875 10C1.875 5.51268 5.51268 1.875 10 1.875C14.4873 1.875 18.125 5.51268 18.125 10C18.125 14.4873 14.4873 18.125 10 18.125C5.51268 18.125 1.875 14.4873 1.875 10Z" fill="#0C83FF" style="fill:#0C83FF;fill:color(display-p3 0.0471 0.5137 1.0000);fill-opacity:1;"/>
<path d="M6.04175 10C6.04175 7.81389 7.81396 6.04168 10.0001 6.04168C12.1862 6.04168 13.9584 7.81389 13.9584 10C13.9584 12.1862 12.1862 13.9583 10.0001 13.9583C7.81396 13.9583 6.04175 12.1862 6.04175 10Z" fill="#0C83FF" style="fill:#0C83FF;fill:color(display-p3 0.0471 0.5137 1.0000);fill-opacity:1;"/>
</svg>
