<svg width="22" height="22" viewBox="0 0 22 22" fill="none" xmlns="http://www.w3.org/2000/svg">
<path d="M10.75 21.5C16.6871 21.5 21.5 16.687 21.5 10.75C21.5 4.81294 16.6871 0 10.75 0C4.81294 0 0 4.81294 0 10.75C0 16.687 4.81294 21.5 10.75 21.5ZM6.75 11.75C6.19772 11.75 5.75 11.3022 5.75 10.75C5.75 10.1977 6.19772 9.75004 6.75 9.75004H14.75L14.8525 9.75484C15.3567 9.80624 15.75 10.2323 15.75 10.75C15.75 11.2676 15.3567 11.6937 14.8525 11.7451L14.75 11.75H6.75Z" fill="#EF4444" style="fill:#EF4444;fill:color(display-p3 0.9373 0.2667 0.2667);fill-opacity:1;"/>
</svg>
