<svg width="20" height="20" viewBox="0 0 20 20" fill="none" xmlns="http://www.w3.org/2000/svg">
<path fill-rule="evenodd" clip-rule="evenodd" d="M10.0001 1.04163C5.05253 1.04163 1.04175 5.05241 1.04175 9.99996C1.04175 14.9475 5.05253 18.9583 10.0001 18.9583C14.9477 18.9583 18.9584 14.9475 18.9584 9.99996C18.9584 5.05241 14.9477 1.04163 10.0001 1.04163ZM11.2502 5.8333C11.2502 5.51765 11.0718 5.2291 10.7895 5.08794C10.5072 4.94678 10.1693 4.97724 9.91683 5.16663L8.25013 6.41663C7.88194 6.69278 7.80732 7.21511 8.08347 7.5833C8.35958 7.95148 8.88191 8.02611 9.25016 7.74997L9.5835 7.49997V14.1666C9.5835 14.6269 9.95658 15 10.4168 15C10.877 15 11.2502 14.6269 11.2502 14.1666V5.8333Z" fill="#0C83FF" style="fill:#0C83FF;fill:color(display-p3 0.0471 0.5137 1.0000);fill-opacity:1;"/>
</svg>
