<svg width="20" height="20" viewBox="0 0 20 20" fill="none" xmlns="http://www.w3.org/2000/svg">
<path d="M10.4167 10H9.58333M10.4167 10C11.5672 10 12.5 9.06729 12.5 7.91671C12.5 6.76612 11.5672 5.83337 10.4167 5.83337H9.58333C8.43275 5.83337 7.5 6.76612 7.5 7.91671M10.4167 10C11.5672 10 12.5 10.9328 12.5 12.0834C12.5 13.234 11.5672 14.1667 10.4167 14.1667H9.58333C8.43275 14.1667 7.5 13.234 7.5 12.0834" stroke="#343434" style="stroke:#343434;stroke:color(display-p3 0.2039 0.2039 0.2039);stroke-opacity:1;" stroke-width="1.25" stroke-linecap="round" stroke-linejoin="round"/>
<path d="M18.3334 9.99996C18.3334 14.6023 14.6024 18.3333 10.0001 18.3333C5.39771 18.3333 1.66675 14.6023 1.66675 9.99996C1.66675 5.39758 5.39771 1.66663 10.0001 1.66663C14.6024 1.66663 18.3334 5.39758 18.3334 9.99996Z" stroke="#343434" style="stroke:#343434;stroke:color(display-p3 0.2039 0.2039 0.2039);stroke-opacity:1;" stroke-width="1.25" stroke-linecap="round" stroke-linejoin="round"/>
</svg>
