<svg width="36" height="36" viewBox="0 0 36 36" fill="none" xmlns="http://www.w3.org/2000/svg">
<path fill-rule="evenodd" clip-rule="evenodd" d="M19.5088 31.875C19.5088 32.7035 18.8371 33.375 18.0088 33.375C17.1804 33.375 16.5088 32.7035 16.5088 31.875V25.125H15.6174C15.354 25.1252 15.0304 25.1255 14.7658 25.0923L14.7608 25.0917C14.5711 25.068 13.7071 24.9603 13.2955 24.1119C12.8831 23.2617 13.336 22.5114 13.434 22.3491L13.4376 22.3431C13.5759 22.1136 13.7772 21.8572 13.9427 21.6463L13.9783 21.601C14.4202 21.0373 14.9932 20.3109 15.5638 19.7244C15.8485 19.4318 16.1745 19.13 16.5208 18.8916C16.8286 18.6798 17.3539 18.375 18 18.375C18.646 18.375 19.1713 18.6798 19.4791 18.8916C19.8255 19.13 20.1514 19.4318 20.4361 19.7244C21.0069 20.3109 21.5797 21.0373 22.0218 21.601L22.0573 21.6463C22.2228 21.8572 22.4241 22.1136 22.5624 22.3431L22.566 22.3491C22.6639 22.5114 23.1169 23.2617 22.7044 24.1119C22.293 24.9603 21.4288 25.068 21.2392 25.0917L21.2341 25.0923C20.9695 25.1255 20.646 25.1252 20.3826 25.125H19.5088V31.875Z" fill="#0C83FF" style="fill:#0C83FF;fill:color(display-p3 0.0471 0.5137 1.0000);fill-opacity:1;"/>
<path opacity="0.4" d="M1.875 18.75C1.875 14.7874 4.54659 11.4498 8.18738 10.4388C8.48136 10.3571 8.62836 10.3163 8.71308 10.2295C8.7978 10.1428 8.83487 9.99576 8.90897 9.70175C9.93408 5.6348 13.6151 2.625 18 2.625C22.8223 2.625 26.7942 6.26596 27.3168 10.9488C27.3578 11.3169 27.3783 11.5009 27.472 11.6074C27.5658 11.7139 27.7484 11.7582 28.1134 11.8468C31.5633 12.6838 34.125 15.7927 34.125 19.5C34.125 23.8492 30.5993 27.375 26.25 27.375H24.6009C23.913 27.375 23.5689 27.375 23.5239 27.3178C23.5019 27.2899 23.4962 27.2758 23.4925 27.2406C23.4851 27.1681 23.7779 26.8834 24.3638 26.314C25.8489 24.8706 25.8825 22.4964 24.439 21.0112C23.4663 19.7973 22.5472 18.5133 21.3568 17.4994C20.4129 16.6954 19.2639 16.125 18 16.125C16.7361 16.125 15.5871 16.6954 14.6431 17.4994C13.4527 18.5133 12.5336 19.7973 11.561 21.0112C10.1174 22.4964 10.1512 24.8706 11.6363 26.314C12.2221 26.8834 12.515 27.1681 12.5075 27.2406C12.5038 27.2758 12.4981 27.2899 12.4761 27.3178C12.4311 27.375 12.087 27.375 11.3991 27.375H10.5C5.73654 27.375 1.875 23.5135 1.875 18.75Z" fill="#0C83FF" style="fill:#0C83FF;fill:color(display-p3 0.0471 0.5137 1.0000);fill-opacity:1;"/>
</svg>
