<svg preserveAspectRatio="none" width="100%" height="100%" overflow="visible" style="display: block;" viewBox="0 0 20 20" fill="none" xmlns="http://www.w3.org/2000/svg">
<g id="Frame">
<path id="Vector" d="M8.33334 11.0242C8.45134 11.2174 8.59142 11.4003 8.75351 11.569C9.75976 12.6162 11.2935 12.78 12.4647 12.0602C12.6817 11.9267 12.8862 11.7631 13.0727 11.569L15.7722 8.75949C16.9648 7.51819 16.9648 5.50562 15.7722 4.26431C14.5794 3.02299 12.6457 3.023 11.4529 4.26431L10.8583 4.88314" stroke="var(--stroke-0, #F35C86)" style="stroke:#F35C86;stroke:color(display-p3 0.9529 0.3608 0.5255);stroke-opacity:1;" stroke-width="1.25" stroke-linecap="round"/>
<path id="Vector_2" d="M9.14193 15.1167L8.54709 15.7357C7.35439 16.977 5.42060 16.977 4.22788 15.7357C3.03516 14.4943 3.03516 12.4818 4.22788 11.2405L6.92740 8.431C8.12012 7.18967 10.0539 7.18966 11.2466 8.431C11.4087 8.59958 11.5487 8.78250 11.6667 8.97566" stroke="var(--stroke-0, #F35C86)" style="stroke:#F35C86;stroke:color(display-p3 0.9529 0.3608 0.5255);stroke-opacity:1;" stroke-width="1.25" stroke-linecap="round"/>
</g>
</svg>