<svg preserveAspectRatio="none" width="100%" height="100%" overflow="visible" style="display: block;" viewBox="0 0 20 20" fill="none" xmlns="http://www.w3.org/2000/svg">
<g id="Frame">
<path id="Vector" opacity="0.4" d="M15.3635 10.776C16.5154 9.94813 17.6781 10.1433 18.5505 10.6154C18.78 10.7395 18.9082 10.9932 18.872 11.2516C18.3521 14.9682 15.5541 17.9522 11.9344 18.749C11.6853 18.8037 11.428 18.7018 11.2841 18.4913C11.1402 18.2808 11.1386 18.004 11.28 17.7918C11.8321 16.964 12.047 16.3623 12.1085 15.9183C12.168 15.4878 12.09 15.1595 11.9654 14.8545C11.9027 14.7011 11.8167 14.5311 11.7349 14.3693C11.6525 14.2063 11.5555 14.0134 11.4834 13.811C11.3243 13.3643 11.2827 12.8569 11.5812 12.2849C11.7987 11.8682 12.1138 11.626 12.4915 11.5068C12.7812 11.4155 13.1834 11.3985 13.4388 11.3877C14.0009 11.362 14.6127 11.3156 15.3635 10.776Z" fill="var(--fill-0, #404B86)" style="fill:#404B86;fill:color(display-p3 0.2510 0.2941 0.5255);fill-opacity:1;"/>
<path id="Vector_2" opacity="0.4" d="M8.47692 1.17049C8.97225 1.08561 9.48117 1.04146 9.99984 1.04146C12.8167 1.04146 15.3301 2.34228 16.9713 4.37355C17.1143 4.55057 17.1498 4.79136 17.064 5.00214C16.9782 5.21291 16.7845 5.36035 16.5584 5.38703C15.9189 5.46252 15.198 5.73042 14.6928 6.38436C14.0155 7.26101 13.2892 7.80031 12.5524 8.01712C11.8014 8.2381 11.0928 8.10662 10.5265 7.74016C9.68809 7.19753 9.57975 6.43915 9.50884 5.94255C9.47017 5.68306 9.42334 5.44015 9.35359 5.31111C9.29542 5.2036 9.18984 5.07486 8.92717 4.94734C8.26669 4.62677 7.8924 4.04052 7.76257 3.40893C7.63498 2.78825 7.73692 2.11239 8.01749 1.51925C8.10463 1.33505 8.27609 1.2049 8.47692 1.17049Z" fill="var(--fill-0, #404B86)" style="fill:#404B86;fill:color(display-p3 0.2510 0.2941 0.5255);fill-opacity:1;"/>
<path id="Vector_3" opacity="0.4" d="M1.46973 8.61979C1.68568 8.53229 1.9324 8.57212 2.10979 8.7232C2.67626 9.2057 3.41292 9.5982 4.24052 9.5982C4.79561 9.5982 5.27397 9.6242 5.67575 9.69945C6.07845 9.77487 6.44836 9.90762 6.74874 10.1536C7.37392 10.6655 7.46521 11.4676 7.46521 12.2929C7.46521 13.142 7.4669 13.4995 7.51249 13.8045C7.55617 14.0965 7.64111 14.3469 7.8636 14.9845C7.99203 15.3526 8.17036 15.8752 8.16017 16.4385C8.14929 17.0408 7.9262 17.6545 7.34099 18.2003C7.16409 18.3653 6.90786 18.4135 6.68316 18.3238C3.37861 17.006 1.04156 13.7765 1.04156 9.9997C1.04156 9.70979 1.05536 9.42295 1.08236 9.1397C1.10447 8.90779 1.25378 8.70737 1.46973 8.61979Z" fill="var(--fill-0, #404B86)" style="fill:#404B86;fill:color(display-p3 0.2510 0.2941 0.5255);fill-opacity:1;"/>
<path id="Vector_4" fill-rule="evenodd" clip-rule="evenodd" d="M9.99991 17.3294C5.9519 17.3294 2.67035 14.0478 2.67035 9.99978C2.67035 5.9518 5.9519 2.67025 9.99991 2.67025C14.0479 2.67025 17.3294 5.9518 17.3294 9.99978C17.3294 14.0478 14.0479 17.3294 9.99991 17.3294ZM1.04156 9.99978C1.04156 14.9474 5.05235 18.9581 9.99991 18.9581C14.9474 18.9581 18.9582 14.9474 18.9582 9.99978C18.9582 5.05225 14.9474 1.04146 9.99991 1.04146C5.05235 1.04146 1.04156 5.05225 1.04156 9.99978Z" fill="var(--fill-0, #404B86)" style="fill:#404B86;fill:color(display-p3 0.2510 0.2941 0.5255);fill-opacity:1;"/>
</g>
</svg>