<svg preserveAspectRatio="none" width="100%" height="100%" overflow="visible" style="display: block;" viewBox="0 0 1456.45 1282.53" fill="none" xmlns="http://www.w3.org/2000/svg">
<g id="Vector">
<path d="M1450.73 78.9032C1471.36 65.8183 1408.25 65.1637 1373.62 59.4344C1364.95 57.9979 1368.96 58.4708 1364.31 55.3942C1361.51 53.535 1357.33 52.8516 1355.59 50.541C1352.54 46.5118 1353.6 43.5335 1344.26 41.5169C1329.87 38.4109 1346.77 33.8054 1341.16 30.2894C1332.78 25.0409 1331.88 19.0413 1308.21 19.4719C1280.81 19.9704 1294.45 13.6148 1280.91 20.464C1275.54 2.41186 1282.75 10.3151 1199.29 18.0364C1190.75 18.8279 1187.9 18.6794 1184.73 24.0961C1176.6 37.9783 1180.85 27.6956 1184.73 35.0886C1186.35 38.1543 1167.37 45.7694 1157.71 46.203C1156.55 46.2551 1155.09 46.7959 1154.56 47.2472C1146.76 53.941 1155.96 53.6146 1090.37 49.308C1086.55 46.4655 1079.45 45.0772 1071.4 44.444C1066.18 37.2183 1084.54 37.7325 1063 30.8204C1059.29 31.2215 1055.92 29.9394 1051.52 30.2982C1036.52 31.5184 1047.11 25.4421 1030.09 24.096C1020.63 23.3468 985.543 21.6674 979.856 24.9564C980.704 27.4528 982.756 30.2363 978.118 30.4054C972.457 30.6099 969.045 32.3158 964.583 32.9687C963.39 35.006 962.322 36.8259 961.22 38.7088C957.497 38.7137 954.05 38.1848 950.946 39.2899C934.816 45.0281 932.056 36.6145 925.039 48.2992C923.101 51.5242 909.841 51.3896 901.213 51.1811C884.422 50.7731 888.802 52.4633 861.996 52.1486C859.555 52.1201 850.293 49.3493 829.875 49.5902C790.379 50.0602 795.613 52.2047 796.696 56.7177C792.478 56.8032 784.652 56.7541 781.774 57.582C775.659 59.343 739.59 60.0587 737.627 59.1482C735.529 58.1758 732.5 58.1463 729.86 57.7206C718.637 55.9105 721.797 60.1492 711.753 59.9673C708.601 58.3941 702.686 55.0157 692.416 57.5033C686.779 58.869 674.787 57.9959 669.565 56.057C653.889 50.2343 641.709 50.0917 637.589 44.9661C634.961 41.6978 625.137 41.9014 615.318 33.5852C607.719 27.149 599.441 41.105 587.348 25.8039C585.065 22.9132 584.481 20.3479 577.669 20.6213C562.856 21.2191 573.172 57.3538 524.894 32.2882C516.295 27.8244 525.714 25.8589 516.073 24.5207C512.191 23.9819 508.833 24.8343 506.387 22.3183C502.381 18.1975 503.898 18.5348 496.856 18.993C492.85 16.9547 489.4 15.1603 485.836 13.3994C478.72 9.88235 378.52 9.84006 355.324 8.0673C329.137 6.06543 335.498 2.96334 324.387 4.39296C300.379 7.48228 306.874 -0.895842 288.786 0.0795249C183.153 5.77539 218.923 6.43119 174.826 26.4941C155.863 35.1229 144.669 -1.33826 140.048 27.086C139.023 33.3934 142.141 34.7336 135.219 35.1328C126.011 35.6657 126.071 39.636 118.969 36.9597C109.641 33.4446 103.419 25.1186 92.4534 24.622C50.3958 22.7136 70.5238 52.4082 43.2129 56.8603C29.0771 59.165 13.9454 58.2368 7.773 65.0122C4.14121 69.0022 5.62362 73.7011 3.46401 77.8208C2.16369 80.2966 1.00837 82.5757 0 84.73L1450.73 78.9032Z" fill="var(--fill-0, #F5F2E9)"/>
<path d="M5.72008 1200.95C-14.9132 1214.03 48.2 1217.36 82.8221 1223.09C91.5019 1224.53 87.485 1224.06 92.1334 1227.13C94.939 1228.99 99.1178 1229.67 100.861 1231.98C103.905 1236.01 102.851 1238.99 112.189 1241.01C126.582 1244.12 109.682 1248.72 115.289 1252.24C123.666 1257.49 124.571 1263.48 148.234 1263.05C175.636 1262.56 161.997 1268.91 175.532 1262.06C180.908 1280.11 173.698 1272.21 257.152 1264.49C265.702 1263.7 268.546 1263.85 271.712 1258.43C279.844 1244.55 275.599 1254.83 271.712 1247.44C270.101 1244.37 289.076 1236.76 298.736 1236.32C299.901 1236.27 301.357 1235.73 301.883 1235.28C309.685 1228.58 300.487 1228.91 366.081 1233.22C369.895 1236.06 376.993 1237.45 385.052 1238.08C390.265 1245.31 371.903 1244.79 393.446 1251.71C397.154 1251.3 400.529 1252.59 404.931 1252.23C419.931 1251.01 409.342 1257.08 426.354 1258.43C435.82 1259.18 470.904 1260.86 476.592 1257.57C475.743 1255.07 473.691 1252.29 478.329 1252.12C483.99 1251.92 487.402 1250.21 491.864 1249.56C493.057 1247.52 494.126 1245.7 495.227 1243.82C498.95 1243.81 502.398 1244.34 505.502 1243.24C521.631 1237.5 524.392 1245.91 531.409 1234.23C533.347 1231 546.607 1231.14 555.235 1231.34C572.025 1231.75 567.646 1230.06 594.452 1230.38C596.893 1230.41 606.155 1233.18 626.573 1232.94C666.069 1232.47 660.834 1230.32 659.752 1225.81C663.969 1225.72 671.796 1225.77 674.674 1224.94C680.789 1223.18 716.858 1222.47 718.821 1223.38C720.918 1224.35 723.948 1224.38 726.588 1224.81C737.81 1226.62 734.65 1222.38 744.695 1222.56C747.846 1224.13 753.762 1227.51 764.032 1225.02C769.668 1223.66 781.661 1224.53 786.883 1226.47C802.559 1232.29 814.738 1232.43 818.859 1237.56C821.486 1240.83 831.311 1240.62 841.13 1248.94C848.729 1255.38 857.007 1241.42 869.099 1256.72C871.383 1259.61 871.967 1262.18 878.779 1261.9C893.592 1261.31 883.276 1225.17 931.554 1250.24C940.153 1254.7 930.734 1256.67 940.374 1258.01C944.257 1258.54 947.615 1257.69 950.06 1260.21C954.067 1264.33 952.549 1263.99 959.591 1263.53C963.598 1265.57 967.048 1267.37 970.611 1269.13C977.728 1272.64 1077.93 1272.69 1101.12 1274.46C1127.31 1276.46 1120.95 1279.56 1132.06 1278.13C1156.07 1275.04 1149.57 1283.42 1167.66 1282.45C1273.29 1276.75 1237.52 1276.09 1281.62 1256.03C1300.58 1247.4 1311.78 1283.86 1316.4 1255.44C1317.42 1249.13 1314.31 1247.79 1321.23 1247.39C1330.44 1246.86 1330.38 1242.89 1337.48 1245.57C1346.81 1249.08 1353.03 1257.41 1363.99 1257.9C1406.05 1259.81 1385.92 1230.12 1413.23 1225.67C1427.37 1223.36 1442.5 1224.29 1448.67 1217.51C1452.31 1213.52 1450.82 1208.82 1452.98 1204.71C1454.28 1202.23 1455.44 1199.95 1456.45 1197.8L5.72008 1200.95Z" fill="var(--fill-0, #F5F2E9)"/>
<path d="M0 84.73L1450.73 78.9032L1456.45 1197.8L5.72008 1200.95H0.000282288L0 84.73Z" fill="var(--fill-0, #F5F2E9)"/>
</g>
</svg>
