<svg preserveAspectRatio="none" width="100%" height="100%" overflow="visible" style="display: block;" viewBox="0 0 81.331 90.4942" fill="none" xmlns="http://www.w3.org/2000/svg">
<g id="Group">
<path id="Vector" d="M37.8201 45.1216L0.172324 82.5165C0.0573473 81.9021 -0.00213828 81.2625 6.05607e-05 80.6015L0.0065996 45.2122L0.0860181 9.82287C0.088188 9.18506 0.148396 8.56744 0.26155 7.974L37.8201 45.1216Z" fill="var(--fill-0, #4285F4)"/>
<path id="Vector_2" d="M57.2419 25.8352L37.8221 45.1245L0.263582 7.97686C1.49085 1.51633 8.923 -2.13954 14.9494 1.34954L45.6844 19.144L57.2419 25.8352Z" fill="var(--fill-0, #34A853)"/>
<path id="Vector_3" d="M76.3584 53.9854L57.5958 64.6866L37.817 45.1237L57.2368 25.8345L76.4143 36.9374C82.9945 40.747 82.9637 50.2184 76.3584 53.9854Z" fill="var(--fill-0, #FCBC03)"/>
<path id="Vector_4" d="M57.5963 64.6875L45.5086 71.5815L14.6583 89.1768C8.62935 92.6153 1.37129 88.9476 0.169765 82.5195L37.8176 45.1247L57.5963 64.6875Z" fill="var(--fill-0, #DB4437)"/>
<g id="Vector_5">
</g>
</g>
</svg>
