<svg preserveAspectRatio="none" width="100%" height="100%" overflow="visible" style="display: block;" viewBox="0 0 98.6926 94.5991" fill="none" xmlns="http://www.w3.org/2000/svg">
<g id="Vector" filter="url(#filter0_d_3005_10609)">
<path d="M47.1853 92.5991C38.1669 92.5991 30.0611 90.7202 22.8679 86.9626C15.7821 83.2049 10.1993 77.8369 6.11958 70.8584C2.03986 63.8799 0 55.6668 0 46.219C0 36.8786 2.03986 28.7191 6.11958 21.7406C10.3067 14.7622 15.9431 9.3941 23.029 5.63646C30.2222 1.87882 38.328 0 47.3463 0C56.3646 0 64.4167 1.87882 71.5026 5.63646C78.6958 9.3941 84.3322 14.7622 88.412 21.7406C92.599 28.7191 94.6926 36.8786 94.6926 46.219C94.6926 55.5594 92.599 63.7726 88.412 70.8584C84.3322 77.8369 78.6958 83.2049 71.5026 86.9626C64.3094 90.7202 56.2036 92.5991 47.1853 92.5991ZM47.1853 65.2219C51.5871 65.2219 55.2373 63.6115 58.1361 60.3907C61.1422 57.0625 62.6453 52.3386 62.6453 46.219C62.6453 40.0994 61.1422 35.4292 58.1361 32.2084C55.2373 28.9875 51.6407 27.3771 47.3463 27.3771C43.0519 27.3771 39.4552 28.9875 36.5565 32.2084C33.6577 35.4292 32.2084 40.0994 32.2084 46.219C32.2084 52.446 33.6041 57.1699 36.3954 60.3907C39.1868 63.6115 42.7834 65.2219 47.1853 65.2219Z" fill="var(--fill-0, white)"/>
</g>
<defs>
<filter id="filter0_d_3005_10609" x="0" y="0" width="98.6926" height="94.5991" filterUnits="userSpaceOnUse" color-interpolation-filters="sRGB">
<feFlood flood-opacity="0" result="BackgroundImageFix"/>
<feColorMatrix in="SourceAlpha" type="matrix" values="0 0 0 0 0 0 0 0 0 0 0 0 0 0 0 0 0 0 127 0" result="hardAlpha"/>
<feOffset dx="4" dy="2"/>
<feComposite in2="hardAlpha" operator="out"/>
<feColorMatrix type="matrix" values="0 0 0 0 0 0 0 0 0 0 0 0 0 0 0 0 0 0 0.5 0"/>
<feBlend mode="normal" in2="BackgroundImageFix" result="effect1_dropShadow_3005_10609"/>
<feBlend mode="normal" in="SourceGraphic" in2="effect1_dropShadow_3005_10609" result="shape"/>
</filter>
</defs>
</svg>
