<svg preserveAspectRatio="none" width="100%" height="100%" overflow="visible" style="display: block;" viewBox="0 0 100.464 122.298" fill="none" xmlns="http://www.w3.org/2000/svg">
<g id="Vector" filter="url(#filter0_d_3005_10617)">
<path d="M31.5641 41.3877C34.0335 37.0933 37.5227 33.7651 42.0319 31.4032C46.541 28.9338 51.8554 27.6992 57.975 27.6992C65.1682 27.6992 71.6636 29.578 77.4611 33.3357C83.3659 37.0933 87.9825 42.4614 91.3107 49.4398C94.7462 56.4183 96.4641 64.5778 96.4641 73.9182C96.4641 83.2586 94.7462 91.4718 91.3107 98.5576C87.9825 105.536 83.3659 110.904 77.4611 114.662C71.6636 118.419 65.1682 120.298 57.975 120.298C51.8554 120.298 46.541 119.117 42.0319 116.755C37.5227 114.286 34.0335 110.904 31.5641 106.61V119.171H0V0H31.5641V41.3877ZM64.4167 73.9182C64.4167 68.0133 62.8063 63.4505 59.5854 60.2296C56.472 56.9014 52.607 55.2373 47.9904 55.2373C43.3739 55.2373 39.4552 56.9014 36.2344 60.2296C33.1209 63.5578 31.5641 68.1207 31.5641 73.9182C31.5641 79.8231 33.1209 84.4396 36.2344 87.7678C39.4552 91.096 43.3739 92.7601 47.9904 92.7601C52.607 92.7601 56.472 91.096 59.5854 87.7678C62.8063 84.3322 64.4167 79.7157 64.4167 73.9182Z" fill="var(--fill-0, white)"/>
</g>
<defs>
<filter id="filter0_d_3005_10617" x="0" y="0" width="100.464" height="122.298" filterUnits="userSpaceOnUse" color-interpolation-filters="sRGB">
<feFlood flood-opacity="0" result="BackgroundImageFix"/>
<feColorMatrix in="SourceAlpha" type="matrix" values="0 0 0 0 0 0 0 0 0 0 0 0 0 0 0 0 0 0 127 0" result="hardAlpha"/>
<feOffset dx="4" dy="2"/>
<feComposite in2="hardAlpha" operator="out"/>
<feColorMatrix type="matrix" values="0 0 0 0 0 0 0 0 0 0 0 0 0 0 0 0 0 0 0.5 0"/>
<feBlend mode="normal" in2="BackgroundImageFix" result="effect1_dropShadow_3005_10617"/>
<feBlend mode="normal" in="SourceGraphic" in2="effect1_dropShadow_3005_10617" result="shape"/>
</filter>
</defs>
</svg>
