<svg preserveAspectRatio="none" width="100%" height="100%" overflow="visible" style="display: block;" viewBox="0 0 1454.76 91.5446" fill="none" xmlns="http://www.w3.org/2000/svg">
<path id="Vector" d="M1446.45 91.5446C1478.89 59.4344 1408.25 65.1637 1373.63 59.4344C1364.95 57.9979 1368.97 58.4708 1364.32 55.3942C1361.51 53.535 1357.33 52.8516 1355.59 50.541C1352.55 46.5118 1353.6 43.5335 1344.26 41.5169C1329.87 38.4109 1346.77 33.8054 1341.16 30.2894C1332.79 25.0409 1331.88 19.0413 1308.22 19.4719C1280.82 19.9704 1294.45 13.6148 1280.92 20.464C1275.54 2.41186 1282.75 10.3151 1199.3 18.0364C1190.75 18.8279 1187.9 18.6794 1184.74 24.0961C1176.61 37.9783 1180.85 27.6956 1184.74 35.0886C1186.35 38.1543 1167.37 45.7694 1157.72 46.203C1156.55 46.2551 1155.09 46.7959 1154.57 47.2472C1146.77 53.941 1155.96 53.6146 1090.37 49.308C1086.56 46.4655 1079.46 45.0772 1071.4 44.444C1066.19 37.2183 1084.55 37.7325 1063 30.8204C1059.3 31.2215 1055.92 29.9394 1051.52 30.2982C1036.52 31.5184 1047.11 25.4421 1030.1 24.096C1020.63 23.3468 985.546 21.6674 979.858 24.9564C980.707 27.4528 982.759 30.2363 978.121 30.4054C972.46 30.6099 969.048 32.3158 964.586 32.9687C963.393 35.006 962.325 36.8259 961.223 38.7088C957.5 38.7137 954.053 38.1848 950.949 39.2899C934.819 45.0281 932.059 36.6145 925.042 48.2992C923.104 51.5242 909.844 51.3896 901.215 51.1811C884.425 50.7731 888.804 52.4633 861.999 52.1486C859.558 52.1201 850.296 49.3493 829.878 49.5902C790.381 50.0602 795.616 52.2047 796.699 56.7177C792.481 56.8032 784.654 56.7541 781.776 57.582C775.662 59.343 739.592 60.0587 737.629 59.1482C735.531 58.1758 732.502 58.1463 729.862 57.7206C718.64 55.9105 721.799 60.1492 711.755 59.9673C708.604 58.3941 702.688 55.0157 692.418 57.5033C686.782 58.869 674.789 57.9959 669.567 56.057C653.891 50.2343 641.711 50.0917 637.591 44.9661C634.963 41.6978 625.138 41.9014 615.32 33.5852C607.721 27.149 599.442 41.105 587.35 25.8039C585.066 22.9132 584.483 20.3479 577.67 20.6213C562.857 21.2191 573.173 57.3538 524.896 32.2882C516.297 27.8244 525.716 25.8589 516.075 24.5207C512.193 23.9819 508.834 24.8343 506.389 22.3183C502.382 18.1975 503.9 18.5348 496.858 18.993C492.851 16.9547 489.402 15.1603 485.838 13.3994C478.722 9.88235 378.522 9.84006 355.325 8.0673C329.139 6.06543 335.499 2.96334 324.389 4.39296C300.38 7.48228 306.876 -0.895842 288.787 0.0795249C183.154 5.77539 218.924 6.43119 174.826 26.4941C155.864 35.1229 144.67 -1.33826 140.048 27.086C139.024 33.3934 142.142 34.7336 135.22 35.1328C126.012 35.6657 126.072 39.636 118.97 36.9597C109.642 33.4446 103.42 25.1186 92.4539 24.622C50.3963 22.7136 70.5244 52.4082 43.2134 56.8603C29.0775 59.165 13.9458 58.2368 7.77338 65.0122C4.14157 69.0022 5.624 73.7011 3.46438 77.8208C2.16405 80.2966 1.00837 89.3904 0 91.5446H1446.45Z" fill="var(--fill-0, #F5F2E9)"/>
</svg>
