<svg width="100" height="44" viewBox="0 0 100 44" fill="none" xmlns="http://www.w3.org/2000/svg">
<g opacity="0.4" clip-path="url(#clip0_0_15)">
<g clip-path="url(#clip1_0_15)">
<g clip-path="url(#clip2_0_15)">
<path d="M0.5 22C0.5 33.8741 10.1259 43.5 22 43.5C33.8741 43.5 43.5 33.8741 43.5 22C43.5 10.1259 33.8741 0.5 22 0.5C10.1259 0.5 0.5 10.1259 0.5 22Z" stroke="white"/>
<path d="M19.8157 15.3577C19.8036 15.3456 19.4322 15.2532 18.9906 15.1523C18.5489 15.0515 18.1828 14.9844 18.1769 15.0031C18.171 15.0219 18.1253 15.3264 18.0754 15.6799C17.975 16.3897 17.7319 17.2184 17.4722 17.7367C16.6627 19.3519 15.2102 20.4214 13.4486 20.6994L13 20.7702V21.4838V22.1974L13.4066 22.2651C16.0704 22.7091 17.8071 24.6876 18.1319 27.6485C18.1531 27.8419 18.1785 28 18.1882 28C18.2781 28 19.7667 27.6436 19.7949 27.6154C19.8152 27.595 19.8001 27.4137 19.7612 27.2127C19.3304 24.9864 18.097 23.1748 16.4964 22.4174L16.1125 22.2357L24.0076 22.2214L29 22.2124V20.7683L23.9948 20.7593L16.1183 20.745L16.603 20.501C17.8605 19.8682 18.856 18.6268 19.4423 16.9605C19.6093 16.4858 19.8614 15.4036 19.8157 15.3577Z" fill="white"/>
</g>
</g>
</g>
<g clip-path="url(#clip3_0_15)">
<g clip-path="url(#clip4_0_15)">
<g clip-path="url(#clip5_0_15)">
<path d="M99.5 22C99.5 10.1259 89.8741 0.5 78 0.5C66.1259 0.5 56.5 10.1259 56.5 22C56.5 33.8741 66.1259 43.5 78 43.5C89.8741 43.5 99.5 33.8741 99.5 22Z" stroke="#D4AF37"/>
<path d="M80.1843 28.6423C80.1964 28.6544 80.5678 28.7468 81.0094 28.8477C81.4511 28.9485 81.8172 29.0156 81.8231 28.9969C81.829 28.9781 81.8747 28.6736 81.9246 28.3201C82.025 27.6103 82.2681 26.7816 82.5278 26.2633C83.3373 24.6481 84.7898 23.5786 86.5514 23.3006L87 23.2298V22.5162V21.8026L86.5934 21.7349C83.9296 21.2909 82.1929 19.3124 81.8681 16.3515C81.8469 16.1581 81.8215 16 81.8118 16C81.7219 16 80.2333 16.3564 80.2051 16.3846C80.1848 16.405 80.1999 16.5863 80.2388 16.7873C80.6696 19.0136 81.903 20.8252 83.5036 21.5826L83.8875 21.7643L75.9924 21.7786L71 21.7876V23.2317L76.0052 23.2407L83.8817 23.255L83.397 23.499C82.1395 24.1318 81.144 25.3732 80.5577 27.0395C80.3907 27.5142 80.1386 28.5964 80.1843 28.6423Z" fill="#D4AF37"/>
</g>
</g>
</g>
<defs>
<clipPath id="clip0_0_15">
<rect width="44" height="44" fill="white" transform="matrix(-1 0 0 -1 44 44)"/>
</clipPath>
<clipPath id="clip1_0_15">
<rect width="44" height="44" fill="white" transform="matrix(-1 0 0 -1 44 44)"/>
</clipPath>
<clipPath id="clip2_0_15">
<rect width="44" height="44" fill="white" transform="matrix(-1 0 0 -1 44 44)"/>
</clipPath>
<clipPath id="clip3_0_15">
<rect width="44" height="44" fill="white" transform="translate(56)"/>
</clipPath>
<clipPath id="clip4_0_15">
<rect width="44" height="44" fill="white" transform="translate(56)"/>
</clipPath>
<clipPath id="clip5_0_15">
<rect width="44" height="44" fill="white" transform="translate(56)"/>
</clipPath>
</defs>
</svg>
