<svg preserveAspectRatio="none" width="100%" height="100%" overflow="visible" style="display: block;" viewBox="0 0 24 24" fill="none" xmlns="http://www.w3.org/2000/svg">
<g id="Frame">
<path id="Vector" d="M21.5 12C21.5 17.2467 17.2467 21.5 12 21.5C6.75335 21.5 2.50001 17.2467 2.50001 12C2.50001 6.7533 6.75335 2.50001 12 2.50001C15.8956 2.50001 19.2436 4.84479 20.7095 8.20001M21.5 5.50001L21.025 8.67501L18 8.00001" stroke="var(--stroke-0, #8E70C1)" style="stroke:#8E70C1;stroke:color(display-p3 0.5569 0.4392 0.7569);stroke-opacity:1;" stroke-width="1.5" stroke-linecap="round" stroke-linejoin="round"/>
<path id="Vector_2" d="M10.25 11V9.25C10.25 8.2835 11.0335 7.5 12 7.5C12.9665 7.5 13.75 8.2835 13.75 9.25V11M15.5 12V15.5C15.5 16.0523 15.0523 16.5 14.5 16.5H9.50001C8.94773 16.5 8.50001 16.0523 8.50001 15.5V12C8.50001 11.4477 8.94773 11 9.50001 11H14.5C15.0523 11 15.5 11.4477 15.5 12Z" stroke="var(--stroke-0, #8E70C1)" style="stroke:#8E70C1;stroke:color(display-p3 0.5569 0.4392 0.7569);stroke-opacity:1;" stroke-width="1.5" stroke-linejoin="round"/>
</g>
</svg>
