<svg width="16" height="16" viewBox="0 0 16 16" fill="none" xmlns="http://www.w3.org/2000/svg">
<path opacity="0.4" d="M6.15928 8.85914C6.42109 8.94647 6.56257 9.22961 6.47531 9.49161L5.91425 11.1758L6.57569 11.7538C7.0032 12.1275 7.28907 12.376 7.52807 12.5367C7.75533 12.6896 7.8872 12.7255 8 12.7255C8.1128 12.7255 8.24467 12.6896 8.47193 12.5367C8.71093 12.376 8.9968 12.1275 9.42433 11.7538L10.0857 11.1758L9.52467 9.49161C9.4374 9.22961 9.57893 8.94647 9.84073 8.85914C10.1025 8.77181 10.3855 8.91341 10.4728 9.17534L11.06 10.9382L12.032 11.2624C12.6459 11.4671 13.0239 11.5931 13.3638 11.7905C13.696 11.9835 13.9973 12.2254 14.2577 12.5081C14.3898 12.6515 14.5732 12.9299 14.7206 13.2012C14.8148 13.3741 14.929 13.5837 14.9754 13.7977C15.0369 14.081 14.9813 14.3413 14.8296 14.5965C14.6596 14.8826 14.4211 15.0422 14.1277 15.1123C13.8988 15.1671 13.6268 15.167 13.3703 15.1668H2.62975C2.37323 15.167 2.10123 15.1671 1.87227 15.1123C1.57891 15.0422 1.34042 14.8826 1.17038 14.5965C1.01875 14.3413 0.963146 14.081 1.02458 13.7977C1.07099 13.5837 1.18518 13.3741 1.2794 13.2012C1.42679 12.9299 1.61021 12.6515 1.74229 12.5081C2.00263 12.2254 2.30399 11.9835 2.63623 11.7905C2.97611 11.5931 3.35413 11.4671 3.96802 11.2624L4.93998 10.9382L5.52722 9.17534C5.61449 8.91341 5.89747 8.77181 6.15928 8.85914Z" fill="#343434" style="fill:#343434;fill:color(display-p3 0.2039 0.2039 0.2039);fill-opacity:1;"/>
<path d="M12.4768 4.45023L12.3385 4.80751C12.3917 4.825 12.4444 4.84282 12.4967 4.86095C12.7576 4.95143 12.8957 5.23628 12.8053 5.49718C12.7148 5.75808 12.4299 5.89622 12.1691 5.80574C11.97 5.73672 11.7618 5.6723 11.5451 5.61299C10.5147 5.33099 9.30207 5.16668 7.99953 5.16668C6.77447 5.16668 5.62855 5.31204 4.63893 5.56415C4.35529 5.63641 4.0851 5.71728 3.83005 5.80574C3.56915 5.89622 3.2843 5.75808 3.19382 5.49718C3.10333 5.23628 3.24148 4.95143 3.50238 4.86095C3.59693 4.82816 3.69304 4.79641 3.79064 4.76573L3.71594 4.62109C3.53588 4.2725 3.36301 3.9378 3.2703 3.67766C3.171 3.39903 3.11501 3.09048 3.23367 2.76802C3.35537 2.43731 3.60347 2.2463 3.86728 2.1153C4.10464 1.99743 4.41679 1.89879 4.76124 1.78994L7.4788 0.930757C7.6216 0.88519 7.78413 0.833344 7.957 0.833344C8.12993 0.833344 8.29247 0.88519 8.43527 0.930757L11.3289 1.84563C11.6381 1.94331 11.9217 2.03292 12.1405 2.14039C12.3854 2.2607 12.616 2.43432 12.7444 2.7332C12.8696 3.02458 12.8448 3.3128 12.7795 3.57861C12.7187 3.82576 12.6053 4.11853 12.4768 4.45023Z" fill="#343434" style="fill:#343434;fill:color(display-p3 0.2039 0.2039 0.2039);fill-opacity:1;"/>
<path fill-rule="evenodd" clip-rule="evenodd" d="M4.6673 4.83334C4.94344 4.83334 5.1673 5.0572 5.1673 5.33334V6.48346C5.1673 7.50821 5.69394 8.45301 6.54684 8.97554L6.88984 9.18568C7.57404 9.60481 8.42724 9.60481 9.11144 9.18568L9.45444 8.97554C10.3073 8.45301 10.834 7.50821 10.834 6.48346V5.33334C10.834 5.0572 11.0578 4.83334 11.334 4.83334C11.6101 4.83334 11.834 5.0572 11.834 5.33334V6.48346C11.834 7.84968 11.132 9.12054 9.97678 9.82821L9.63378 10.0383C8.62904 10.6539 7.37224 10.6539 6.36744 10.0383L6.02445 9.82821C4.8693 9.12054 4.1673 7.84968 4.1673 6.48346V5.33334C4.1673 5.0572 4.39115 4.83334 4.6673 4.83334Z" fill="#343434" style="fill:#343434;fill:color(display-p3 0.2039 0.2039 0.2039);fill-opacity:1;"/>
</svg>
