<svg width="16" height="16" viewBox="0 0 16 16" fill="none" xmlns="http://www.w3.org/2000/svg">
<path opacity="0.4" d="M5.49991 7C5.49991 5.61929 6.61921 4.5 7.99991 4.5C9.38065 4.5 10.4999 5.61929 10.4999 7C10.4999 8.01707 9.89251 8.89233 9.02071 9.2828C10.8032 9.69767 12.1666 11.1743 12.1666 12.9993C12.1666 13.2755 11.9428 13.4993 11.6666 13.4993H4.33331C4.05717 13.4993 3.83331 13.2755 3.83331 12.9993C3.83331 11.1743 5.19669 9.69773 6.97918 9.2828C6.10731 8.89233 5.49991 8.01713 5.49991 7Z" fill="#0C83FF" style="fill:#0C83FF;fill:color(display-p3 0.0471 0.5137 1.0000);fill-opacity:1;"/>
<path d="M4.99991 2.49869C3.61921 2.49869 2.49991 3.61797 2.49991 4.99869C2.49991 6.01579 3.10731 6.89105 3.97916 7.28146C2.19669 7.69646 0.833313 9.17306 0.833313 10.9981C0.833313 11.2742 1.05717 11.4981 1.33331 11.4981H3.0835C3.44827 10.4444 4.18553 9.57352 5.11937 8.98712C4.72897 8.42279 4.49991 7.73779 4.49991 6.99865C4.49991 5.38212 5.59588 4.02153 7.08531 3.61939C6.63773 2.94402 5.87083 2.49869 4.99991 2.49869Z" fill="#0C83FF" style="fill:#0C83FF;fill:color(display-p3 0.0471 0.5137 1.0000);fill-opacity:1;"/>
<path d="M12.9165 11.4981C12.5518 10.4443 11.8144 9.57345 10.8806 8.98705C11.271 8.42272 11.5 7.73772 11.5 6.99865C11.5 5.38212 10.404 4.02153 8.91455 3.61939C9.36215 2.94402 10.1291 2.49869 11 2.49869C12.3807 2.49869 13.5 3.61797 13.5 4.99869C13.5 6.01577 12.8926 6.89099 12.0208 7.28146C13.8033 7.69639 15.1667 9.17299 15.1667 10.9981C15.1667 11.2742 14.9428 11.4981 14.6667 11.4981H12.9165Z" fill="#0C83FF" style="fill:#0C83FF;fill:color(display-p3 0.0471 0.5137 1.0000);fill-opacity:1;"/>
</svg>
