<svg width="24" height="24" viewBox="0 0 24 24" fill="none" xmlns="http://www.w3.org/2000/svg">
<path d="M14.0492 1.25C14.714 1.24996 15.2869 1.24993 15.7456 1.31161C16.2372 1.37771 16.7085 1.52677 17.0907 1.90901C17.473 2.29126 17.622 2.76252 17.6881 3.25416C17.7498 3.7129 17.7498 4.28576 17.7497 4.95062V6.04937C17.7498 6.71424 17.7498 7.2871 17.6881 7.74585C17.622 8.23748 17.473 8.70875 17.0907 9.09099C16.7085 9.47324 16.2372 9.6223 15.7456 9.6884C15.2868 9.75007 14.714 9.75004 14.0491 9.75001L13.2268 9.75L10.4158 11.624C10.1856 11.7775 9.88974 11.7918 9.64587 11.6613C9.402 11.5307 9.24976 11.2766 9.24976 11V9.7469C8.87632 9.74158 8.54253 9.7272 8.25392 9.6884C7.76228 9.6223 7.29102 9.47324 6.90877 9.09099C6.52653 8.70875 6.37747 8.23748 6.31137 7.74585C6.24969 7.28711 6.24972 6.71427 6.24976 6.04943V4.95063C6.24972 4.28579 6.24969 3.71289 6.31137 3.25416C6.37747 2.76252 6.52653 2.29126 6.90877 1.90901C7.29102 1.52677 7.76228 1.37771 8.25392 1.31161C8.71265 1.24993 9.28549 1.24996 9.95034 1.25H14.0492Z" fill="#343434" style="fill:#343434;fill:color(display-p3 0.2039 0.2039 0.2039);fill-opacity:1;"/>
<path d="M3.17272 18.1177C4.89977 16.9608 7.10042 16.9608 8.82747 18.1177C9.13753 18.3137 9.84353 18.7614 10.2143 19.1697C10.4496 19.4288 10.6976 19.7967 10.7429 20.2626C10.7915 20.7627 10.5935 21.2221 10.2317 21.6099C9.68462 22.1963 8.95301 22.75 7.95971 22.75H4.04048C3.04718 22.75 2.31558 22.1963 1.76846 21.6099C1.40665 21.2221 1.20867 20.7627 1.25726 20.2626C1.30253 19.7967 1.55058 19.4288 1.78592 19.1697C2.15667 18.7614 2.86266 18.3137 3.17272 18.1177Z" fill="#343434" style="fill:#343434;fill:color(display-p3 0.2039 0.2039 0.2039);fill-opacity:1;"/>
<path d="M15.1728 18.1177C16.8999 16.9608 19.1005 16.9608 20.8276 18.1177C21.1376 18.3137 21.8436 18.7614 22.2144 19.1697C22.4497 19.4288 22.6977 19.7967 22.743 20.2626C22.7916 20.7627 22.5936 21.2221 22.2318 21.6099C21.6847 22.1963 20.9531 22.75 19.9598 22.75H16.0406C15.0473 22.75 14.3157 22.1963 13.7685 21.6099C13.4067 21.2221 13.2087 20.7627 13.2573 20.2626C13.3026 19.7967 13.5507 19.4288 13.786 19.1697C14.1567 18.7614 14.8627 18.3137 15.1728 18.1177Z" fill="#343434" style="fill:#343434;fill:color(display-p3 0.2039 0.2039 0.2039);fill-opacity:1;"/>
<path d="M3.24976 13.5C3.24976 11.9812 4.48098 10.75 5.99976 10.75C7.51854 10.75 8.74976 11.9812 8.74976 13.5C8.74976 15.0188 7.51854 16.25 5.99976 16.25C4.48098 16.25 3.24976 15.0188 3.24976 13.5Z" fill="#343434" style="fill:#343434;fill:color(display-p3 0.2039 0.2039 0.2039);fill-opacity:1;"/>
<path d="M15.2498 13.5C15.2498 11.9812 16.481 10.75 17.9998 10.75C19.5186 10.75 20.7498 11.9812 20.7498 13.5C20.7498 15.0188 19.5186 16.25 17.9998 16.25C16.481 16.25 15.2498 15.0188 15.2498 13.5Z" fill="#343434" style="fill:#343434;fill:color(display-p3 0.2039 0.2039 0.2039);fill-opacity:1;"/>
</svg>
