<svg width="13" height="13" viewBox="0 0 13 13" fill="none" xmlns="http://www.w3.org/2000/svg">
<path d="M8.7526 4.08366L6.71037 6.12501L8.75178 8.16635L8.16813 8.75001L6.12678 6.70777L4.08537 8.75001L3.50178 8.16635L5.54313 6.12501L3.50089 4.08366L4.08448 3.50001L6.12678 5.54224L8.16902 3.50001L8.7526 4.08366Z" fill="#EF4444" style="fill:#EF4444;fill:color(display-p3 0.9373 0.2667 0.2667);fill-opacity:1;"/>
<path fill-rule="evenodd" clip-rule="evenodd" d="M6.12501 5.7767e-06C7.81637 5.7767e-06 9.34763 0.686016 10.4563 1.79376C11.0258 2.36191 11.4775 3.03706 11.7854 3.78035C12.0932 4.52365 12.2511 5.32049 12.25 6.12501C12.2511 6.92953 12.0932 7.72636 11.7854 8.46966L11.7561 8.53912C11.4492 9.25503 11.0081 9.90584 10.4563 10.4563C9.88809 11.0258 9.21296 11.4775 8.46966 11.7854L8.3998 11.8138C7.67653 12.1029 6.90438 12.2511 6.12501 12.25C5.32049 12.2511 4.52365 12.0932 3.78035 11.7854C3.03706 11.4775 2.36191 11.0258 1.79376 10.4563C1.24196 9.90584 0.800798 9.25503 0.493902 8.53912L0.464644 8.46966C0.156816 7.72637 -0.0011032 6.92952 5.80069e-06 6.12501C1.05417e-05 4.43364 0.686009 2.90238 1.79376 1.79376C2.34417 1.24196 2.99498 0.800801 3.71089 0.493902L3.78035 0.464644C4.52365 0.156814 5.32049 -0.00110091 6.12501 5.7767e-06ZM6.12384 0.840006C5.43001 0.839052 4.74281 0.975249 4.10177 1.24073C3.46074 1.50621 2.87848 1.89575 2.38848 2.38698L2.38794 2.38753C1.43097 3.34526 0.840011 4.66552 0.840006 6.12501V6.12617C0.839049 6.82 0.97525 7.5072 1.24073 8.14824C1.50621 8.78927 1.89575 9.37153 2.38698 9.86153L2.38848 9.86303C2.87848 10.3543 3.46074 10.7438 4.10177 11.0093C4.74281 11.2748 5.43001 11.411 6.12384 11.41H6.12617C6.82001 11.411 7.5072 11.2748 8.14824 11.0093C8.78928 10.7438 9.37153 10.3543 9.86153 9.86303L9.86303 9.86153C10.3543 9.37153 10.7438 8.78928 11.0093 8.14824C11.2748 7.5072 11.411 6.82001 11.41 6.12617V6.12384C11.411 5.43001 11.2748 4.74281 11.0093 4.10177C10.7438 3.46074 10.3543 2.87848 9.86303 2.38848L9.86255 2.38794C8.90481 1.43096 7.58451 0.840006 6.12501 0.840006H6.12384Z" fill="#EF4444" style="fill:#EF4444;fill:color(display-p3 0.9373 0.2667 0.2667);fill-opacity:1;"/>
</svg>
