<svg width="20" height="20" viewBox="0 0 20 20" fill="none" xmlns="http://www.w3.org/2000/svg">
<path fill-rule="evenodd" clip-rule="evenodd" d="M10.0476 1.45833C11.8732 1.45832 13.3071 1.45831 14.4266 1.60882C15.5738 1.76306 16.484 2.0856 17.1992 2.80076C17.9143 3.51592 18.2368 4.42614 18.3911 5.57335C18.5416 6.69286 18.5416 8.12678 18.5416 9.95233V10.0477C18.5416 11.8732 18.5416 13.3072 18.3911 14.4267C18.2368 15.5738 17.9143 16.4841 17.1992 17.1992C16.484 17.9144 15.5738 18.2369 14.4266 18.3912C13.3071 18.5417 11.8732 18.5417 10.0476 18.5417H9.95225C8.12667 18.5417 6.69279 18.5417 5.57327 18.3912C4.42606 18.2369 3.51584 17.9144 2.80068 17.1992C2.08552 16.4841 1.76299 15.5738 1.60874 14.4267C1.45824 13.3072 1.45824 11.8732 1.45825 10.0477V9.95233C1.45824 8.12676 1.45824 6.69286 1.60874 5.57335C1.76299 4.42614 2.08552 3.51592 2.80068 2.80076C3.51584 2.0856 4.42606 1.76306 5.57327 1.60882C6.69279 1.45831 8.12669 1.45832 9.95225 1.45833H10.0476ZM13.8963 6.88571C14.2356 7.1967 14.2585 7.72384 13.9476 8.06311L9.36425 13.0631C9.21059 13.2307 8.99525 13.3282 8.768 13.3332C8.54075 13.3381 8.32139 13.25 8.16066 13.0892L6.07733 11.0059C5.75189 10.6805 5.75189 10.1528 6.07733 9.82741C6.40277 9.502 6.9304 9.502 7.25584 9.82741L8.72375 11.2953L12.7189 6.9369C13.0299 6.59763 13.5571 6.57471 13.8963 6.88571Z" fill="#0C83FF" style="fill:#0C83FF;fill:color(display-p3 0.0471 0.5137 1.0000);fill-opacity:1;"/>
</svg>
