<svg width="12" height="12" viewBox="0 0 12 12" fill="none" xmlns="http://www.w3.org/2000/svg">
<path d="M8.87109 4.31934L5.53711 8.33496C5.44862 8.44146 5.31988 8.50658 5.18164 8.51465C5.04334 8.52272 4.90791 8.47252 4.80762 8.37695L2.65527 6.32617L3 5.96484L3.34473 5.60254L5.10938 7.28418L8.10156 3.68066L8.87109 4.31934Z" fill="#059669" style="fill:#059669;fill:color(display-p3 0.0196 0.5882 0.4118);fill-opacity:1;"/>
<path fill-rule="evenodd" clip-rule="evenodd" d="M6 0C9.31371 0 12 2.68629 12 6C12 9.31371 9.31371 12 6 12C2.68629 12 0 9.31371 0 6C0 2.68629 2.68629 0 6 0ZM6 1C3.23858 1 1 3.23858 1 6C1 8.76142 3.23858 11 6 11C8.76142 11 11 8.76142 11 6C11 3.23858 8.76142 1 6 1Z" fill="#059669" style="fill:#059669;fill:color(display-p3 0.0196 0.5882 0.4118);fill-opacity:1;"/>
</svg>
