<svg width="24" height="24" viewBox="0 0 24 24" fill="none" xmlns="http://www.w3.org/2000/svg">
<path fill-rule="evenodd" clip-rule="evenodd" d="M19.1095 6.78591C18.7391 6.74991 18.2934 6.74993 17.7695 6.74995L16.9552 6.74994C16.5224 6.74989 16.1255 6.74985 15.8027 6.79325C15.4473 6.84104 15.0715 6.95349 14.7625 7.26251C14.4535 7.57153 14.341 7.94726 14.2932 8.30274C14.2498 8.62555 14.2499 9.02238 14.2499 9.4552V17.4999C14.2499 17.9141 14.5857 18.2499 14.9999 18.2499H16.3535C16.6799 19.4042 17.7412 20.2499 18.9999 20.2499C20.2605 20.2499 21.323 19.4017 21.6478 18.2449C21.847 18.2397 22.0318 18.2288 22.1972 18.2066C22.5526 18.1588 22.9284 18.0464 23.2374 17.7373C23.5464 17.4283 23.6589 17.0526 23.7066 16.6971C23.75 16.3743 23.75 15.9775 23.7499 15.5447L23.75 13.5272C23.7503 13.0552 23.7505 12.6822 23.6502 12.3198C23.5498 11.9574 23.3577 11.6378 23.1146 11.2331L21.7906 9.02667C21.5211 8.57746 21.2918 8.1952 21.0703 7.89612C20.8344 7.57748 20.5748 7.30638 20.2225 7.1069C19.8702 6.90742 19.5041 6.82427 19.1095 6.78591ZM17.7499 10.4999V8.24994C18.3091 8.24996 18.6776 8.251 18.9644 8.27887C19.2375 8.30542 19.3772 8.35207 19.4834 8.41219C19.5896 8.47231 19.7015 8.56814 19.8648 8.78867C20.0377 9.02226 20.2301 9.34124 20.522 9.82783L21.6753 11.7499H18.9999C18.5073 11.7499 18.2133 11.7483 18.0026 11.72C17.8442 11.7056 17.7881 11.5655 17.7799 11.4972C17.7515 11.2865 17.7499 10.9925 17.7499 10.4999ZM17.7499 17.4999C17.7499 16.8095 18.3096 16.2499 18.9999 16.2499C19.6903 16.2499 20.2499 16.8095 20.2499 17.4999C20.2499 18.1903 19.6903 18.7499 18.9999 18.7499C18.3096 18.7499 17.7499 18.1903 17.7499 17.4999Z" fill="#0C83FF" style="fill:#0C83FF;fill:color(display-p3 0.0471 0.5137 1.0000);fill-opacity:1;"/>
<path fill-rule="evenodd" clip-rule="evenodd" d="M2.20193 14.2499L12.9999 14.25V18.25H7.64652C7.32006 19.4042 6.25881 20.25 5.00004 20.25C3.74126 20.25 2.68002 19.4042 2.35355 18.25H2.20194C2.02002 18.2503 1.83071 18.2506 1.65863 18.2164C0.96442 18.0783 0.421749 17.5356 0.283661 16.8414C0.249432 16.6693 0.249715 16.48 0.249988 16.2981C0.249715 16.1162 0.249432 15.8307 0.283661 15.6586C0.421748 14.9644 0.964419 14.4217 1.65863 14.2836C1.83071 14.2494 2.02002 14.2497 2.20193 14.2499ZM3.74994 17.4999C3.74994 16.8095 4.30958 16.2499 4.99994 16.2499C5.69029 16.2499 6.24994 16.8095 6.24994 17.4999C6.24994 18.1903 5.69029 18.7499 4.99994 18.7499C4.30958 18.7499 3.74994 18.1903 3.74994 17.4999Z" fill="#0C83FF" style="fill:#0C83FF;fill:color(display-p3 0.0471 0.5137 1.0000);fill-opacity:1;"/>
<path fill-rule="evenodd" clip-rule="evenodd" d="M3.99994 3.74996C3.05822 3.7492 2.27346 3.76424 1.53548 4.35903C1.18013 4.64543 0.941833 4.94554 0.776563 5.31764C0.633938 5.63876 0.55611 5.99739 0.479865 6.34873C0.33695 7.00618 0.249939 7.76099 0.249939 8.50016C0.249939 9.23933 0.33695 9.99415 0.479865 10.6515C0.55611 11.0029 0.633938 11.3615 0.776563 11.6826C0.941833 12.0547 1.18013 12.3549 1.53548 12.6413C2.27346 13.236 3.05822 13.2511 3.99994 13.2503V3.74996ZM5.49994 13.2502H7.99994V3.75005H5.49994V13.2502ZM9.49994 3.74996V13.2503C10.4417 13.2511 11.2264 13.236 11.9644 12.6413C12.3197 12.3549 12.558 12.0547 12.7233 11.6826C12.8659 11.3615 12.9438 11.0029 13.02 10.6515C13.1629 9.99414 13.2499 9.23933 13.2499 8.50016C13.2499 7.76099 13.1629 7.00618 13.02 6.34874C12.9438 5.99739 12.8659 5.63876 12.7233 5.31764C12.558 4.94554 12.3197 4.64543 11.9644 4.35903C11.2264 3.76424 10.4417 3.7492 9.49994 3.74996Z" fill="#0C83FF" style="fill:#0C83FF;fill:color(display-p3 0.0471 0.5137 1.0000);fill-opacity:1;"/>
</svg>
