<svg width="15" height="13" viewBox="0 0 15 13" fill="none" xmlns="http://www.w3.org/2000/svg">
<path d="M12.7767 13C13.6363 13 14.3333 12.303 14.3333 11.4433C14.3333 11.2095 14.2807 10.9789 14.1797 10.7689L14.1335 10.6803L8.59573 0.83594C8.30527 0.319627 7.75907 0 7.16667 0C6.61127 0 6.09647 0.280953 5.79492 0.741533L5.73763 0.83594L0.199867 10.6803C0.06884 10.9133 1.33333e-05 11.1761 0 11.4433C0 12.303 0.696973 13 1.55664 13H12.7767ZM7.16667 8.16667C6.79847 8.16667 6.5 7.8682 6.5 7.5V4.5C6.5 4.13181 6.79847 3.83333 7.16667 3.83333C7.53487 3.83333 7.83333 4.13181 7.83333 4.5V7.5C7.83333 7.8682 7.53487 8.16667 7.16667 8.16667ZM7.16667 10.5065C6.79847 10.5065 6.5 10.2081 6.5 9.83987V9.83333C6.5 9.46513 6.79847 9.16667 7.16667 9.16667C7.53487 9.16667 7.83333 9.46513 7.83333 9.83333V9.83987C7.83333 10.2081 7.53487 10.5065 7.16667 10.5065Z" fill="#EF4444" style="fill:#EF4444;fill:color(display-p3 0.9373 0.2667 0.2667);fill-opacity:1;"/>
</svg>
