<svg width="20" height="20" viewBox="0 0 20 20" fill="none" xmlns="http://www.w3.org/2000/svg">
<path fill-rule="evenodd" clip-rule="evenodd" d="M7.5 10C7.5 10.4603 7.8731 10.8334 8.33333 10.8334H16.6667C17.1269 10.8334 17.5 10.4603 17.5 10C17.5 9.53977 17.1269 9.16669 16.6667 9.16669H8.33333C7.8731 9.16669 7.5 9.53977 7.5 10Z" fill="#343434" style="fill:#343434;fill:color(display-p3 0.2039 0.2039 0.2039);fill-opacity:1;"/>
<path fill-rule="evenodd" clip-rule="evenodd" d="M8.72664 5.93173C8.99764 6.07674 9.16681 6.35913 9.16681 6.66647V13.3332C9.16681 13.6404 8.99764 13.9228 8.72672 14.0678C8.45572 14.2128 8.12695 14.197 7.87123 14.0265L2.87123 10.6935C2.6394 10.539 2.50013 10.2787 2.50012 10.0002C2.50011 9.7215 2.63935 9.46133 2.87117 9.30675L7.87117 5.97311C8.12689 5.80262 8.45564 5.78672 8.72664 5.93173Z" fill="#343434" style="fill:#343434;fill:color(display-p3 0.2039 0.2039 0.2039);fill-opacity:1;"/>
</svg>
