<svg width="15" height="15" viewBox="0 0 15 15" fill="none" xmlns="http://www.w3.org/2000/svg">
<mask id="mask0_120_328" style="mask-type:alpha" maskUnits="userSpaceOnUse" x="-4" y="-4" width="23" height="23">
<rect x="-3.08825" y="-3.08822" width="21.1764" height="21.1764" fill="#D9D9D9" style="fill:#D9D9D9;fill:color(display-p3 0.8510 0.8510 0.8510);fill-opacity:1;"/>
</mask>
<g mask="url(#mask0_120_328)">
<path d="M1.59507 15C1.14934 15 0.772058 14.8456 0.463235 14.5367C0.154412 14.2279 0 13.8506 0 13.4049V1.59507C0 1.14934 0.154412 0.772058 0.463235 0.463235C0.772058 0.154412 1.14934 0 1.59507 0H13.4049C13.8506 0 14.2279 0.154412 14.5367 0.463235C14.8456 0.772058 15 1.14934 15 1.59507V13.4049C15 13.8506 14.8456 14.2279 14.5367 14.5367C14.2279 14.8456 13.8506 15 13.4049 15H1.59507ZM1.59507 13.6765H13.4049C13.4728 13.6765 13.5351 13.6481 13.5915 13.5915C13.6481 13.5351 13.6765 13.4728 13.6765 13.4049V1.59507C13.6765 1.52713 13.6481 1.46492 13.5915 1.40845C13.5351 1.35184 13.4728 1.32353 13.4049 1.32353H1.59507C1.52713 1.32353 1.46492 1.35184 1.40845 1.40845C1.35184 1.46492 1.32353 1.52713 1.32353 1.59507V13.4049C1.32353 13.4728 1.35184 13.5351 1.40845 13.5915C1.46492 13.6481 1.52713 13.6765 1.59507 13.6765Z" fill="#1C1B1F" style="fill:#1C1B1F;fill:color(display-p3 0.1098 0.1059 0.1216);fill-opacity:1;"/>
</g>
</svg>
