<svg width="64" height="64" viewBox="0 0 64 64" fill="none" xmlns="http://www.w3.org/2000/svg">
<path fill-rule="evenodd" clip-rule="evenodd" d="M36.1828 6.41493C34.4522 4.97277 31.9383 4.97277 30.2079 6.41493L24.4713 11.1954H15.862C13.2847 11.1954 11.1954 13.2847 11.1954 15.8621V24.4713L6.41487 30.208C4.97271 31.9384 4.97271 34.4522 6.41487 36.1829L11.1954 41.9194L11.1954 50.5288C11.1954 53.1061 13.2847 55.1954 15.862 55.1954H24.4713L30.2079 59.976C31.9383 61.4181 34.4522 61.4181 36.1828 59.976L41.9194 55.1954H50.5287C53.106 55.1954 55.1954 53.1061 55.1954 50.5288V41.9194L59.9759 36.1829C61.418 34.4522 61.418 31.9384 59.9759 30.208L55.1954 24.4713V15.8621C55.1954 13.2847 53.106 11.1954 50.5287 11.1954H41.9194L36.1828 6.41493ZM42.4274 28.8938C43.7335 28.2136 44.241 26.6031 43.5607 25.2969C42.8804 23.9906 41.2698 23.4833 39.9636 24.1636C36.1559 26.1469 33.049 29.9434 30.9962 32.9373C30.8186 33.1965 30.6468 33.4525 30.4815 33.7037C30.1084 34.2706 29.7676 34.8146 29.4612 35.321C29.2324 35.1274 29.01 34.9488 28.7988 34.7853C28.7311 34.7333 28.6647 34.6826 28.5996 34.6336C28.0255 34.2013 27.509 33.8605 27.1319 33.6253C26.9426 33.5072 26.7863 33.4144 26.673 33.3485C26.6162 33.3157 26.5699 33.2893 26.5355 33.2701L26.4927 33.2464L26.4782 33.2384L26.4726 33.2354L26.4683 33.233C25.1742 32.5301 23.5552 33.0093 22.8522 34.3034C22.1494 35.5973 22.6292 37.2165 23.9227 37.9197L23.9283 37.9226L23.9994 37.9634C24.0671 38.0026 24.1734 38.0656 24.309 38.1501C24.582 38.3205 24.9656 38.5736 25.3915 38.8941C26.281 39.564 27.1874 40.4048 27.7372 41.2802C28.2538 42.1029 29.1767 42.5794 30.1466 42.5245C31.1159 42.4696 31.9791 41.8912 32.3996 41.016L32.4063 41.0021L32.4402 40.9336C32.4716 40.8701 32.5207 40.7722 32.5866 40.644C32.7183 40.3872 32.917 40.0096 33.1764 39.5429C33.6964 38.6072 34.453 37.3272 35.3948 35.9533C37.342 33.1138 39.8351 30.244 42.4274 28.8938Z" fill="#008866" style="fill:#008866;fill:color(display-p3 0.0000 0.5338 0.4004);fill-opacity:1;"/>
</svg>
